<svg xmlns="http://www.w3.org/2000/svg" width="24.421" height="16" viewBox="0 0 24.421 16">
  <g id="brazil" transform="translate(0 -88.275)">
    <path id="Caminho_6308" data-name="Caminho 6308" d="M22.592,88.275H1.829A1.829,1.829,0,0,0,0,90.1v12.342a1.829,1.829,0,0,0,1.829,1.829H22.592a1.829,1.829,0,0,0,1.829-1.829V90.1A1.829,1.829,0,0,0,22.592,88.275Z" fill="#73af00"/>
    <path id="Caminho_6309" data-name="Caminho 6309" d="M70.192,133.982l-8.874,5.4a.421.421,0,0,0,0,.719l8.874,5.4a.421.421,0,0,0,.438,0l8.874-5.4a.421.421,0,0,0,0-.719l-8.874-5.4A.421.421,0,0,0,70.192,133.982Z" transform="translate(-58.201 -43.469)" fill="#ffe15a"/>
    <circle id="Elipse_386" data-name="Elipse 386" cx="3.368" cy="3.368" r="3.368" transform="translate(8.842 92.907)" fill="#41479b"/>
    <g id="Grupo_8623" data-name="Grupo 8623" transform="translate(8.957 94.548)">
      <path id="Caminho_6310" data-name="Caminho 6310" d="M188.158,219.8a3.344,3.344,0,0,0-.363.862,8.729,8.729,0,0,1,6.388,2.088,3.343,3.343,0,0,0,.219-.931A9.62,9.62,0,0,0,188.158,219.8Z" transform="translate(-187.795 -219.801)" fill="#f5f5f5"/>
      <path id="Caminho_6311" data-name="Caminho 6311" d="M249.27,279.577l.09.269.283,0a.038.038,0,0,1,.022.069l-.228.168.086.27a.038.038,0,0,1-.059.043l-.231-.165L249,280.4a.038.038,0,0,1-.059-.043l.086-.27-.228-.168a.038.038,0,0,1,.022-.069l.283,0,.09-.269A.038.038,0,0,1,249.27,279.577Z" transform="translate(-245.877 -276.701)" fill="#f5f5f5"/>
      <path id="Caminho_6312" data-name="Caminho 6312" d="M277.865,294.458l.039.116h.122a.016.016,0,0,1,.01.03l-.1.072.037.116a.016.016,0,0,1-.025.018l-.1-.071-.1.071a.016.016,0,0,1-.025-.018l.037-.116-.1-.072a.016.016,0,0,1,.01-.03h.122l.039-.116A.017.017,0,0,1,277.865,294.458Z" transform="translate(-273.371 -290.886)" fill="#f5f5f5"/>
      <path id="Caminho_6313" data-name="Caminho 6313" d="M244.78,269.165l.039.116h.122a.016.016,0,0,1,.01.03l-.1.072.037.116a.016.016,0,0,1-.025.018l-.1-.071-.1.071a.016.016,0,0,1-.025-.018l.037-.116-.1-.072a.016.016,0,0,1,.01-.03h.122l.039-.116A.017.017,0,0,1,244.78,269.165Z" transform="translate(-241.864 -266.8)" fill="#f5f5f5"/>
      <path id="Caminho_6314" data-name="Caminho 6314" d="M199.971,266.222l.039.116h.122a.016.016,0,0,1,.01.03l-.1.072.037.116a.016.016,0,0,1-.025.018l-.1-.071-.1.071a.016.016,0,0,1-.025-.018l.037-.116-.1-.072a.016.016,0,0,1,.01-.03h.122l.039-.116A.017.017,0,0,1,199.971,266.222Z" transform="translate(-199.192 -263.998)" fill="#f5f5f5"/>
      <path id="Caminho_6315" data-name="Caminho 6315" d="M237.456,293.622l.039.116h.122a.016.016,0,0,1,.01.03l-.1.072.037.116a.016.016,0,0,1-.025.018l-.1-.071-.1.071a.016.016,0,0,1-.025-.018l.037-.116-.1-.072a.016.016,0,0,1,.01-.03h.122l.039-.116A.017.017,0,0,1,237.456,293.622Z" transform="translate(-234.889 -290.09)" fill="#f5f5f5"/>
      <path id="Caminho_6316" data-name="Caminho 6316" d="M217.592,264.57l.032.095h.1a.013.013,0,0,1,.008.024l-.08.059.03.1a.013.013,0,0,1-.021.015l-.081-.058-.081.058a.013.013,0,0,1-.021-.015l.03-.1-.08-.059a.013.013,0,0,1,.008-.024h.1l.032-.095A.013.013,0,0,1,217.592,264.57Z" transform="translate(-216.008 -262.426)" fill="#f5f5f5"/>
      <path id="Caminho_6317" data-name="Caminho 6317" d="M279.568,223.563l.039.118h.125a.017.017,0,0,1,.01.03l-.1.074.038.119a.017.017,0,0,1-.026.019l-.1-.073-.1.073a.017.017,0,0,1-.026-.019l.038-.119-.1-.074a.017.017,0,0,1,.01-.03h.125l.039-.118A.017.017,0,0,1,279.568,223.563Z" transform="translate(-274.988 -223.372)" fill="#f5f5f5"/>
      <path id="Caminho_6318" data-name="Caminho 6318" d="M203.613,252.431l.032.095h.1a.013.013,0,0,1,.008.024l-.08.059.03.1a.013.013,0,0,1-.021.015l-.081-.058-.081.058a.013.013,0,0,1-.021-.015l.03-.1-.08-.059a.013.013,0,0,1,.008-.024h.1l.032-.095A.013.013,0,0,1,203.613,252.431Z" transform="translate(-202.697 -250.866)" fill="#f5f5f5"/>
      <path id="Caminho_6319" data-name="Caminho 6319" d="M211.964,280.3l.048.143h.151a.02.02,0,0,1,.012.037l-.122.09.046.144a.02.02,0,0,1-.031.023l-.123-.088-.123.088a.02.02,0,0,1-.031-.023l.046-.144-.122-.09a.02.02,0,0,1,.012-.037h.151l.048-.143A.02.02,0,0,1,211.964,280.3Z" transform="translate(-210.565 -277.403)" fill="#f5f5f5"/>
      <path id="Caminho_6320" data-name="Caminho 6320" d="M291.665,295.138l.03.09h.1a.013.013,0,0,1,.008.023l-.076.056.029.091a.013.013,0,0,1-.02.014l-.077-.055-.077.055a.013.013,0,0,1-.02-.014l.029-.091-.076-.056a.013.013,0,0,1,.008-.023h.1l.03-.09A.013.013,0,0,1,291.665,295.138Z" transform="translate(-286.556 -291.536)" fill="#f5f5f5"/>
      <path id="Caminho_6321" data-name="Caminho 6321" d="M297.72,280.658l.039.116h.122a.016.016,0,0,1,.01.03l-.1.072.037.116a.016.016,0,0,1-.025.018l-.1-.071-.1.071a.016.016,0,0,1-.025-.018l.037-.116-.1-.072a.016.016,0,0,1,.01-.03h.122l.039-.116A.016.016,0,0,1,297.72,280.658Z" transform="translate(-292.278 -277.745)" fill="#f5f5f5"/>
    </g>
  </g>
</svg>
