<svg id="menu" xmlns="http://www.w3.org/2000/svg" width="18" height="18" viewBox="0 0 18 18">
  <g id="Grupo_3391" data-name="Grupo 3391">
    <g id="Grupo_3390" data-name="Grupo 3390">
      <path id="Caminho_4316" data-name="Caminho 4316" d="M15.4,0H2.6a2.6,2.6,0,0,0,0,5.2H15.4a2.6,2.6,0,0,0,0-5.2Zm0,3.8H2.6a1.2,1.2,0,0,1,0-2.391H15.4a1.2,1.2,0,0,1,0,2.391Z" fill="#fff"/>
    </g>
  </g>
  <g id="Grupo_3393" data-name="Grupo 3393" transform="translate(0 6.398)">
    <g id="Grupo_3392" data-name="Grupo 3392">
      <path id="Caminho_4317" data-name="Caminho 4317" d="M15.4,182H2.6a2.6,2.6,0,0,0,0,5.2H15.4a2.6,2.6,0,0,0,0-5.2Zm0,3.8H2.6a1.2,1.2,0,0,1,0-2.391H15.4a1.2,1.2,0,0,1,0,2.391Z" transform="translate(0 -182)" fill="#fff"/>
    </g>
  </g>
  <g id="Grupo_3395" data-name="Grupo 3395" transform="translate(0 12.797)">
    <g id="Grupo_3394" data-name="Grupo 3394">
      <path id="Caminho_4318" data-name="Caminho 4318" d="M15.4,364H2.6a2.6,2.6,0,0,0,0,5.2h9.281a.7.7,0,0,0,0-1.406H2.6a1.2,1.2,0,0,1,0-2.391H15.4a1.2,1.2,0,0,1,0,2.391.7.7,0,0,0,0,1.406,2.6,2.6,0,0,0,0-5.2Z" transform="translate(0 -364)" fill="#fff"/>
    </g>
  </g>
</svg>
